<?xml version="1.0" encoding="utf-8"?>
<!-- Generator: Adobe Illustrator 19.0.0, SVG Export Plug-In . SVG Version: 6.00 Build 0)  -->
<svg version="1.2" baseProfile="tiny" id="Слой_1"
	 xmlns="http://www.w3.org/2000/svg" xmlns:xlink="http://www.w3.org/1999/xlink" x="0px" y="0px" viewBox="0 0 128 128"
	 xml:space="preserve">
<path id="XMLID_1_" fill="none" stroke="#A4CFF0" stroke-miterlimit="10" d="M18.6,27.5L55.8,6.3c5.3-3,11.9-3,17.2,0.1L109.8,28
	c5.3,3.1,8.5,8.8,8.5,14.9l-0.3,42.7c0,6.1-3.4,11.8-8.7,14.8l-37.2,21.1c-5.3,3-11.9,3-17.2-0.1L18.2,100
	c-5.3-3.1-8.5-8.8-8.5-14.9l0.3-42.7C10,36.1,13.3,30.5,18.6,27.5z"/>
<path id="XMLID_2_" fill="#A4CFF0" d="M25.2,32.7L57,14.6c4.6-2.6,10.2-2.6,14.7,0.1l31.6,18.5c4.5,2.7,7.3,7.5,7.3,12.8l-0.2,36.6
	c0,5.3-2.9,10.1-7.4,12.7L71,113.4c-4.6,2.6-10.2,2.6-14.7-0.1L24.8,94.8c-4.5-2.7-7.3-7.5-7.3-12.8l0.2-36.6
	C17.8,40.1,20.6,35.3,25.2,32.7z"/>
<g id="XMLID_13_">
	<path id="XMLID_14_" fill="#46A7DE" stroke="#A4CFF0" stroke-width="0.5" stroke-linecap="round" stroke-miterlimit="10" d="
		M65.9,74.4L51.5,94.7c0.4,0.2,0.9,0.5,1.3,0.7l15.5-21.7C67.5,73.9,66.7,74.2,65.9,74.4z"/>
	<path id="XMLID_217_" fill="#46A7DE" stroke="#A4CFF0" stroke-width="0.5" stroke-linecap="round" stroke-miterlimit="10" d="
		M63.6,75.1L50.2,93.9c0.4,0.3,0.9,0.5,1.3,0.8l14.5-20.3C65.2,74.7,64.4,74.9,63.6,75.1z"/>
	<path id="XMLID_218_" fill="#46A7DE" stroke="#A4CFF0" stroke-width="0.5" stroke-linecap="round" stroke-miterlimit="10" d="
		M43,84.5c-0.1,0.4,0,0.8,0,1.2l3.3-4.6C43.9,82.4,43.2,83.4,43,84.5z"/>
	<path id="XMLID_219_" fill="#46A7DE" stroke="#A4CFF0" stroke-width="0.5" stroke-linecap="round" stroke-miterlimit="10" d="
		M61.2,75.9L48.9,93.1c0.4,0.3,0.8,0.6,1.2,0.8l13.4-18.8C62.8,75.4,62,75.6,61.2,75.9z"/>
	<path id="XMLID_220_" fill="#46A7DE" stroke="#A4CFF0" stroke-width="0.5" stroke-linecap="round" stroke-miterlimit="10" d="
		M73,72.3L55.6,96.7c0.5,0.2,1,0.4,1.5,0.5l18.3-25.6C74.6,71.8,73.8,72.1,73,72.3z"/>
	<path id="XMLID_221_" fill="#46A7DE" stroke="#A4CFF0" stroke-width="0.5" stroke-linecap="round" stroke-miterlimit="10" d="
		M70.7,73L54.2,96.1c0.5,0.2,0.9,0.4,1.4,0.6L73,72.3C72.3,72.5,71.5,72.8,70.7,73z"/>
	<path id="XMLID_222_" fill="#46A7DE" stroke="#A4CFF0" stroke-width="0.5" stroke-linecap="round" stroke-miterlimit="10" d="
		M68.3,73.7L52.8,95.4c0.5,0.2,0.9,0.4,1.4,0.7L70.7,73C69.9,73.2,69.1,73.5,68.3,73.7z"/>
	<path id="XMLID_223_" fill="#46A7DE" stroke="#A4CFF0" stroke-width="0.5" stroke-linecap="round" stroke-miterlimit="10" d="
		M49,79.9l-5.4,7.6c0.2,0.5,0.5,0.9,0.9,1.4l7.1-9.9C50.6,79.3,49.8,79.6,49,79.9z"/>
	<path id="XMLID_224_" fill="#46A7DE" stroke="#A4CFF0" stroke-width="0.5" stroke-linecap="round" stroke-miterlimit="10" d="
		M51.6,79l-7.1,9.9c0.3,0.4,0.6,0.8,1,1.2L54,78.1C53.1,78.4,52.3,78.7,51.6,79z"/>
	<path id="XMLID_225_" fill="#46A7DE" stroke="#A4CFF0" stroke-width="0.5" stroke-linecap="round" stroke-miterlimit="10" d="
		M60.2,76.2c-0.5,0.1-0.9,0.3-1.3,0.4L47.7,92.1c0.4,0.3,0.8,0.6,1.2,0.9l12.3-17.2C60.9,76,60.5,76.1,60.2,76.2z"/>
	<path id="XMLID_226_" fill="#46A7DE" stroke="#A4CFF0" stroke-width="0.5" stroke-linecap="round" stroke-miterlimit="10" d="
		M46.3,81.1L43,85.7c0.1,0.6,0.3,1.2,0.6,1.8l5.4-7.6C47.9,80.4,47,80.8,46.3,81.1z"/>
	<path id="XMLID_227_" fill="#46A7DE" stroke="#A4CFF0" stroke-width="0.5" stroke-linecap="round" stroke-miterlimit="10" d="
		M54,78.1l-8.5,11.9c0.3,0.4,0.7,0.7,1.1,1.1l9.9-13.8C55.6,77.6,54.8,77.9,54,78.1z"/>
	<path id="XMLID_228_" fill="#46A7DE" stroke="#A4CFF0" stroke-width="0.5" stroke-linecap="round" stroke-miterlimit="10" d="
		M56.4,77.3l-9.9,13.8c0.4,0.3,0.7,0.7,1.1,1l11.1-15.6C58,76.9,57.2,77.1,56.4,77.3z"/>
	<path id="XMLID_229_" fill="#46A7DE" stroke="#A4CFF0" stroke-width="0.5" stroke-linecap="round" stroke-miterlimit="10" d="
		M77.7,70.9L58.6,97.7c0.5,0.1,1,0.3,1.6,0.4L80,70.3C79.3,70.5,78.5,70.7,77.7,70.9z"/>
	<path id="XMLID_230_" fill="#46A7DE" stroke="#A4CFF0" stroke-width="0.5" stroke-linecap="round" stroke-miterlimit="10" d="
		M98,68.4L78.5,95.8c1.1-0.5,2.1-1.1,3.1-1.8l16.9-23.7C98.5,69.6,98.3,68.9,98,68.4z"/>
	<path id="XMLID_231_" fill="#46A7DE" stroke="#A4CFF0" stroke-width="0.5" stroke-linecap="round" stroke-miterlimit="10" d="
		M98,68.4c-0.2-0.4-0.6-0.6-1.2-0.8L75.7,97c0.9-0.4,1.8-0.8,2.7-1.2L98,68.4C98,68.4,98,68.4,98,68.4z"/>
	<path id="XMLID_232_" fill="#46A7DE" stroke="#A4CFF0" stroke-width="0.5" stroke-linecap="round" stroke-miterlimit="10" d="
		M93.3,67.3L71.1,98.4c0.8-0.1,1.5-0.3,2.2-0.5l21.9-30.6C94.6,67.2,94,67.3,93.3,67.3z"/>
	<path id="XMLID_233_" fill="#46A7DE" stroke="#A4CFF0" stroke-width="0.5" stroke-linecap="round" stroke-miterlimit="10" d="
		M95.2,67.3L73.3,97.9c0.8-0.2,1.6-0.5,2.4-0.8l21.1-29.5C96.4,67.4,95.8,67.3,95.2,67.3z"/>
	<path id="XMLID_234_" fill="#46A7DE" stroke="#A4CFF0" stroke-width="0.5" stroke-linecap="round" stroke-miterlimit="10" d="
		M98.1,73.6c0.3-1.2,0.5-2.3,0.5-3.2L81.6,94c1.4-0.9,2.7-1.8,3.9-2.9L98.1,73.6z"/>
	<path id="XMLID_235_" fill="#46A7DE" stroke="#A4CFF0" stroke-width="0.5" stroke-linecap="round" stroke-miterlimit="10" d="
		M98.1,73.6L85.5,91.1C92,85.8,96.7,78.6,98.1,73.6z"/>
	<path id="XMLID_236_" fill="#46A7DE" stroke="#A4CFF0" stroke-width="0.5" stroke-linecap="round" stroke-miterlimit="10" d="
		M86.9,68.5L65.2,98.8c0.6,0,1.2,0,1.8,0L89.1,68C88.4,68.1,87.7,68.3,86.9,68.5z"/>
	<path id="XMLID_237_" fill="#46A7DE" stroke="#A4CFF0" stroke-width="0.5" stroke-linecap="round" stroke-miterlimit="10" d="
		M82.4,69.6L61.8,98.4c0.6,0.1,1.1,0.2,1.7,0.2L84.6,69C83.9,69.2,83.1,69.4,82.4,69.6z"/>
	<path id="XMLID_238_" fill="#46A7DE" stroke="#A4CFF0" stroke-width="0.5" stroke-linecap="round" stroke-miterlimit="10" d="
		M80,70.3L60.1,98.1c0.5,0.1,1.1,0.2,1.6,0.3l20.6-28.8C81.6,69.8,80.8,70,80,70.3z"/>
	<path id="XMLID_239_" fill="#46A7DE" stroke="#A4CFF0" stroke-width="0.5" stroke-linecap="round" stroke-miterlimit="10" d="
		M91.2,67.6L69,98.7c0.7-0.1,1.4-0.2,2.1-0.3l22.2-31.1C92.6,67.4,92,67.5,91.2,67.6z"/>
	<path id="XMLID_240_" fill="#46A7DE" stroke="#A4CFF0" stroke-width="0.5" stroke-linecap="round" stroke-miterlimit="10" d="
		M84.6,69L63.4,98.7c0.6,0.1,1.2,0.1,1.8,0.1l21.7-30.3C86.2,68.6,85.4,68.8,84.6,69z"/>
	<path id="XMLID_241_" fill="#46A7DE" stroke="#A4CFF0" stroke-width="0.5" stroke-linecap="round" stroke-miterlimit="10" d="
		M75.4,71.6L57.1,97.2c0.5,0.2,1,0.3,1.5,0.5l19.1-26.8C77,71.1,76.2,71.4,75.4,71.6z"/>
	<path id="XMLID_242_" fill="#46A7DE" stroke="#A4CFF0" stroke-width="0.5" stroke-linecap="round" stroke-miterlimit="10" d="
		M89.1,68L67,98.9c0,0,0.1,0,0.1,0c0.6,0,1.2-0.1,1.8-0.1l22.3-31.1C90.6,67.7,89.9,67.8,89.1,68z"/>
</g>
<circle id="XMLID_6_" fill="#4E98D3" stroke="#A4CFF0" stroke-miterlimit="10" cx="96.8" cy="68" r="2.6"/>
<circle id="XMLID_5_" fill="#4E98D3" stroke="#A4CFF0" stroke-miterlimit="10" cx="43.6" cy="84.4" r="2.6"/>
<circle id="XMLID_7_" fill="#4E98D3" stroke="#A4CFF0" stroke-miterlimit="10" cx="73.3" cy="96.7" r="2.6"/>
<circle id="XMLID_10_" fill="#4E98D3" stroke="#A4CFF0" stroke-miterlimit="10" cx="87.7" cy="87.5" r="2.6"/>
<circle id="XMLID_9_" fill="#4E98D3" stroke="#A4CFF0" stroke-miterlimit="10" cx="55.6" cy="96.1" r="2.6"/>
<circle id="XMLID_8_" fill="#4E98D3" stroke="#A4CFF0" stroke-miterlimit="10" cx="68.3" cy="74.4" r="2.6"/>
<g id="XMLID_11_">
	<path id="XMLID_33_" fill="#45A7DE" stroke="#A4CFF0" stroke-miterlimit="10" d="M62.3,30.1l-23.6,34c0.5,0.5,1.1,0.9,1.7,1.3
		l24.5-35.2C64.1,30.1,63.2,30.1,62.3,30.1z"/>
	<path id="XMLID_34_" fill="#45A7DE" stroke="#A4CFF0" stroke-miterlimit="10" d="M64.9,30.1L40.5,65.3c0.6,0.4,1.2,0.7,1.9,1l25-36
		C66.6,30.2,65.7,30.1,64.9,30.1z"/>
	<path id="XMLID_35_" fill="#45A7DE" stroke="#A4CFF0" stroke-miterlimit="10" d="M69.7,30.7L44.5,67c0.7,0.2,1.5,0.3,2.3,0.4
		l25.1-36.1C71.2,31,70.4,30.9,69.7,30.7z"/>
	<path id="XMLID_36_" fill="#45A7DE" stroke="#A4CFF0" stroke-miterlimit="10" d="M59.6,30.3L37.3,62.4c0.4,0.6,0.8,1.1,1.3,1.6
		c0,0,0.1,0,0.1,0.1l23.6-34C61.4,30.1,60.5,30.2,59.6,30.3z"/>
	<path id="XMLID_37_" fill="#45A7DE" stroke="#A4CFF0" stroke-miterlimit="10" d="M67.4,30.3l-25,36c0.7,0.3,1.4,0.5,2.2,0.6
		l25.2-36.3C68.9,30.5,68.1,30.4,67.4,30.3z"/>
	<path id="XMLID_38_" fill="#45A7DE" stroke="#A4CFF0" stroke-miterlimit="10" d="M71.9,31.3L46.8,67.4c0.8,0.1,1.6,0.1,2.5,0.2
		L74,32C73.3,31.7,72.6,31.5,71.9,31.3z"/>
	<path id="XMLID_39_" fill="#45A7DE" stroke="#A4CFF0" stroke-miterlimit="10" d="M45.9,35.1l-10,14.3c-0.3,1.4-0.5,3-0.6,4.5
		L50,32.9C48.6,33.5,47.2,34.3,45.9,35.1z"/>
	<path id="XMLID_40_" fill="#45A7DE" stroke="#A4CFF0" stroke-miterlimit="10" d="M50,32.9L35.3,54c0,1.2,0,2.3,0.2,3.5l18-25.9
		C52.3,31.9,51.2,32.4,50,32.9z"/>
	<path id="XMLID_41_" fill="#45A7DE" stroke="#A4CFF0" stroke-miterlimit="10" d="M37.2,45.3c-0.5,1.2-0.9,2.6-1.3,4.1l10-14.3
		C42,37.7,38.9,41.1,37.2,45.3z"/>
	<path id="XMLID_42_" fill="#45A7DE" stroke="#A4CFF0" stroke-miterlimit="10" d="M56.7,30.7L36.2,60.2c0.3,0.8,0.6,1.5,1.1,2.2
		l22.3-32.1C58.6,30.4,57.6,30.5,56.7,30.7z"/>
	<path id="XMLID_43_" fill="#45A7DE" stroke="#A4CFF0" stroke-miterlimit="10" d="M53.5,31.5l-18,25.9c0.1,0.9,0.4,1.9,0.7,2.7
		l20.4-29.4C55.6,31,54.6,31.2,53.5,31.5z"/>
	<path id="XMLID_44_" fill="#45A7DE" stroke="#A4CFF0" stroke-miterlimit="10" d="M84.8,38.9L67.6,63.6c1.3-0.5,2.5-1.1,3.7-1.6
		l14.8-21.4C85.8,40,85.3,39.4,84.8,38.9z"/>
	<path id="XMLID_45_" fill="#45A7DE" stroke="#A4CFF0" stroke-miterlimit="10" d="M86.2,40.6L71.4,62c1.4-0.7,2.8-1.4,4.1-2.2
		l11.8-17.1C87,42,86.7,41.3,86.2,40.6z"/>
	<path id="XMLID_46_" fill="#45A7DE" stroke="#A4CFF0" stroke-miterlimit="10" d="M75.3,32.5c-0.4-0.2-0.9-0.4-1.3-0.5L49.3,67.5
		c0.9,0,1.7,0,2.7-0.1l24-34.6C75.7,32.7,75.5,32.6,75.3,32.5z"/>
	<path id="XMLID_47_" fill="#45A7DE" stroke="#A4CFF0" stroke-miterlimit="10" d="M87.8,45.5c0-1-0.2-1.9-0.5-2.8L75.5,59.8
		c1.8-1,3.4-2.1,4.9-3.3l7.4-10.7C87.8,45.7,87.8,45.6,87.8,45.5z"/>
	<path id="XMLID_48_" fill="#45A7DE" stroke="#A4CFF0" stroke-miterlimit="10" d="M87.8,45.8l-7.4,10.7
		C84.7,53.1,87.6,49.4,87.8,45.8z"/>
	<path id="XMLID_49_" fill="#45A7DE" stroke="#A4CFF0" stroke-miterlimit="10" d="M83.2,37.4L64.1,64.9c1.2-0.4,2.3-0.8,3.5-1.3
		l17.2-24.8C84.3,38.3,83.8,37.8,83.2,37.4z"/>
	<path id="XMLID_50_" fill="#45A7DE" stroke="#A4CFF0" stroke-miterlimit="10" d="M77.9,33.8L54.8,67.1c1-0.1,2-0.3,3-0.5l22-31.8
		C79.1,34.5,78.5,34.1,77.9,33.8z"/>
	<path id="XMLID_51_" fill="#45A7DE" stroke="#A4CFF0" stroke-miterlimit="10" d="M76,32.8L52,67.4c0.9-0.1,1.8-0.1,2.8-0.3
		l23.2-33.4C77.2,33.4,76.5,33,76,32.8z"/>
	<path id="XMLID_52_" fill="#45A7DE" stroke="#A4CFF0" stroke-miterlimit="10" d="M81.6,36L60.8,65.9c1.1-0.3,2.2-0.6,3.3-1
		l19.1-27.5C82.7,36.9,82.1,36.5,81.6,36z"/>
	<path id="XMLID_53_" fill="#45A7DE" stroke="#A4CFF0" stroke-miterlimit="10" d="M79.8,34.9l-22,31.8c1-0.2,2.1-0.5,3.1-0.7
		L81.6,36C81,35.6,80.4,35.2,79.8,34.9z"/>
</g>
<circle id="XMLID_3_" fill="#4D97D2" stroke="#A4CFF0" stroke-miterlimit="10" cx="85" cy="50.7" r="2.6"/>
<circle id="XMLID_12_" fill="#4D97D2" stroke="#A4CFF0" stroke-miterlimit="10" cx="36.2" cy="49.7" r="2.6"/>
<circle id="XMLID_15_" fill="#4D97D2" stroke="#A4CFF0" stroke-miterlimit="10" cx="56.7" cy="65.3" r="2.6"/>
<circle id="XMLID_16_" fill="#4D97D2" stroke="#A4CFF0" stroke-miterlimit="10" cx="64.2" cy="30.7" r="2.6"/>
</svg>
