<?xml version="1.0" encoding="utf-8"?>
<!-- Generator: Adobe Illustrator 19.0.0, SVG Export Plug-In . SVG Version: 6.00 Build 0)  -->
<svg version="1.1" id="Слой_1" xmlns="http://www.w3.org/2000/svg" xmlns:xlink="http://www.w3.org/1999/xlink" x="0px" y="0px"
	 viewBox="0 0 128 128" enable-background="new 0 0 128 128" xml:space="preserve">
<path id="XMLID_45_" fill="none" stroke="#EA4C50" stroke-width="4" stroke-miterlimit="10" d="M155.8,92.5"/>
<path id="XMLID_47_" fill="none" stroke="#EA4C50" stroke-width="4" stroke-miterlimit="10" d="M8.3,177"/>
<path id="XMLID_31_" fill="none" stroke="#EA4C50" stroke-width="4" stroke-miterlimit="10" d="M-16,177"/>
<g id="XMLID_19_">
	<path id="XMLID_1_" fill="none" stroke="#A3C1AD" stroke-miterlimit="10" d="M17.8,27.5L54.9,6.3c5.3-3,11.9-3,17.2,0.1L109,28
		c5.3,3.1,8.5,8.8,8.5,14.9l-0.3,42.7c0,6.1-3.4,11.8-8.7,14.8l-37.2,21.1c-5.3,3-11.9,3-17.2-0.1L17.3,100C12,96.9,8.8,91.2,8.8,85
		l0.3-42.7C9.1,36.1,12.5,30.5,17.8,27.5z"/>
	<path id="XMLID_2_" fill="#A3C1AD" d="M24.3,33.5l31.8-18.1c4.6-2.6,10.2-2.6,14.7,0.1L102.4,34c4.5,2.7,7.3,7.5,7.3,12.8
		l-0.2,36.6c0,5.3-2.9,10.1-7.4,12.7l-31.8,18.1c-4.6,2.6-10.2,2.6-14.7-0.1L23.9,95.5c-4.5-2.7-7.3-7.5-7.3-12.8l0.2-36.6
		C16.9,40.9,19.8,36.1,24.3,33.5z"/>
	<path id="XMLID_27_" fill="none" stroke="#5D8AA8" stroke-width="4" stroke-miterlimit="10" d="M63.2,25"/>
	<path id="XMLID_25_" fill="#FFFFFF" stroke="#1D1D1B" stroke-linecap="round" stroke-miterlimit="10" d="M63.2,29.3"/>
	<g id="XMLID_5_">
		<g id="XMLID_42_">
			<path id="XMLID_21_" fill="none" stroke="#5D8AA8" stroke-width="3" stroke-linecap="square" stroke-miterlimit="10" d="
				M66.6,54.9c2.7-1.4,4.5-4.2,4.5-7.4c0-4.6-3.8-8.4-8.4-8.4c-4.6,0-8.4,3.8-8.4,8.4c0,3.2,1.8,6,4.5,7.4"/>
		</g>
		<g id="XMLID_18_">
			<path id="XMLID_48_" fill="none" stroke="#5D8AA8" stroke-width="3" stroke-linecap="square" stroke-miterlimit="10" d="
				M68.5,60.8"/>
			<path id="XMLID_10_" fill="none" stroke="#5D8AA8" stroke-width="3" stroke-linecap="square" stroke-miterlimit="10" d="
				M68.5,60.8c5.1-2.2,8.7-7.3,8.7-13.2c0-8-6.5-14.4-14.4-14.4s-14.4,6.5-14.4,14.4c0,5.9,3.6,11,8.7,13.2"/>
		</g>
		<g id="XMLID_7_">
			<path id="XMLID_6_" fill="none" stroke="#5D8AA8" stroke-width="3" stroke-linecap="square" stroke-miterlimit="10" d="
				M70.1,66.6c7.6-3,13-10.4,13-19.1C83.2,36.2,74,27,62.7,27s-20.5,9.2-20.5,20.5c0,8.7,5.4,16.1,13,19.1"/>
		</g>
	</g>
	<g id="XMLID_4_">
		
			<line id="XMLID_26_" fill="none" stroke="#848482" stroke-width="3" stroke-miterlimit="10" x1="70.7" y1="70.3" x2="52.6" y2="80.2"/>
		
			<line id="XMLID_24_" fill="none" stroke="#848482" stroke-width="3" stroke-miterlimit="10" x1="55.7" y1="70.3" x2="73.3" y2="80.2"/>
		
			<line id="XMLID_15_" fill="none" stroke="#848482" stroke-width="4" stroke-miterlimit="10" x1="80" y1="100" x2="52.6" y2="80.2"/>
		
			<line id="XMLID_9_" fill="none" stroke="#848482" stroke-width="2" stroke-miterlimit="10" x1="55.7" y1="70.3" x2="66.2" y2="58.9"/>
		
			<line id="XMLID_33_" fill="none" stroke="#848482" stroke-width="2" stroke-miterlimit="10" x1="70" y1="70.3" x2="59.6" y2="58.7"/>
		
			<line id="XMLID_3_" fill="none" stroke="#848482" stroke-width="4" stroke-miterlimit="10" x1="46.5" y1="100" x2="73.9" y2="80.2"/>
		
			<line id="XMLID_8_" fill="none" stroke="#848482" stroke-width="3" stroke-miterlimit="10" x1="46" y1="101.3" x2="62.7" y2="48.3"/>
		
			<line id="XMLID_32_" fill="none" stroke="#848482" stroke-width="3" stroke-miterlimit="10" x1="80.4" y1="101.3" x2="62.7" y2="48.3"/>
		<circle id="XMLID_35_" fill="#848482" cx="62.7" cy="46.8" r="3.8"/>
	</g>
</g>
</svg>
