<?xml version="1.0" encoding="utf-8"?>
<!-- Generator: Adobe Illustrator 19.0.0, SVG Export Plug-In . SVG Version: 6.00 Build 0)  -->
<svg version="1.2" baseProfile="tiny" id="Слой_1"
	 xmlns="http://www.w3.org/2000/svg" xmlns:xlink="http://www.w3.org/1999/xlink" x="0px" y="0px" viewBox="0 0 128 128"
	 xml:space="preserve">
<path id="XMLID_1_" fill="none" stroke="#C8E3D4" stroke-miterlimit="10" d="M18.6,27.5L55.8,6.3c5.3-3,11.9-3,17.2,0.1L109.8,28
	c5.3,3.1,8.5,8.8,8.5,14.9l-0.3,42.7c0,6.1-3.4,11.8-8.7,14.8l-37.2,21.1c-5.3,3-11.9,3-17.2-0.1L18.2,100
	c-5.3-3.1-8.5-8.8-8.5-14.9l0.3-42.7C10,36.1,13.3,30.5,18.6,27.5z"/>
<path id="XMLID_2_" fill="#C8E3D4" d="M25.2,32.7L57,14.6c4.6-2.6,10.2-2.6,14.7,0.1l31.6,18.5c4.5,2.7,7.3,7.5,7.3,12.8l-0.2,36.6
	c0,5.3-2.9,10.1-7.4,12.7L71,113.4c-4.6,2.6-10.2,2.6-14.7-0.1L24.8,94.8c-4.5-2.7-7.3-7.5-7.3-12.8l0.2-36.6
	C17.8,40.1,20.6,35.3,25.2,32.7z"/>
<circle id="XMLID_3_" fill="#7EC6B4" cx="43.2" cy="64.5" r="7.3"/>
<circle id="XMLID_5_" fill="#7EC6B4" cx="55.7" cy="41.5" r="3.7"/>
<circle id="XMLID_7_" fill="#7EC6B4" cx="75.9" cy="36.8" r="2.3"/>
<circle id="XMLID_8_" fill="#7EC6B4" cx="93.1" cy="36.8" r="1.2"/>
<circle id="XMLID_6_" fill="#7EC6B4" cx="67.2" cy="88.4" r="13.1"/>
</svg>
