<?xml version="1.0" encoding="utf-8"?>
<!-- Generator: Adobe Illustrator 19.0.0, SVG Export Plug-In . SVG Version: 6.00 Build 0)  -->
<svg version="1.1" id="Слой_1" xmlns="http://www.w3.org/2000/svg" xmlns:xlink="http://www.w3.org/1999/xlink" x="0px" y="0px"
	 viewBox="0 0 128 128" enable-background="new 0 0 128 128" xml:space="preserve">
<g id="XMLID_1_">
	<path id="XMLID_19_" fill="#336f94" stroke="#336f94" stroke-miterlimit="10" d="M121.6,35.5l-55-27.7c-0.8-0.4-1.7-0.6-2.6-0.6
		s-1.8,0.2-2.6,0.6l-55,27.7c-2,1-3.2,3-3.2,5.2v14.5c0,3.2,2.5,6.2,5.9,5.9h0.2L9,115c0,1.6,0.6,3.1,1.7,4.2s2.6,1.7,4.2,1.7h98.2
		c1.6,0,3.1-0.6,4.2-1.7c1.1-1.1,1.7-2.6,1.7-4.2l-0.2-53.9h0.2c3.2,0,5.9-2.6,5.9-5.9V40.7C124.8,38.5,123.6,36.5,121.6,35.5z
		 M120.6,53.8c0,1.7-1.4,3.1-3.1,3.1h0c-1.7,0-3.1,1.4-3.1,3.1l0.2,53.6c0,1.7-1.4,3.1-3.1,3.1H16.4c-1.7,0-3.1-1.4-3.1-3.1
		l0.2-53.6c0-1.8-1.5-3-3.2-3.1c-1.6-0.1-2.9-1.4-2.9-3.1V41.6c0-1.2,0.7-2.2,1.7-2.7l53.5-27c0.9-0.4,1.9-0.4,2.8,0l53.5,27
		c1,0.5,1.7,1.6,1.7,2.7V53.8z"/>
	<g id="XMLID_5_">
		<path id="XMLID_2_" fill="#336f94" d="M47.8,62.7H26.6c-0.6,0-1.1-0.5-1.1-1.1v-7.9c0-0.6,0.5-1.1,1.1-1.1h21.3
			c0.6,0,1.1,0.5,1.1,1.1v7.9C48.9,62.2,48.4,62.7,47.8,62.7z"/>
		<path id="XMLID_6_" fill="#336f94" d="M74.6,62.7l-21.3,0c-0.6,0-1.1-0.5-1.1-1.1v-7.9c0-0.6,0.5-1.1,1.1-1.1h21.3
			c0.6,0,1.1,0.5,1.1,1.1v7.9C75.7,62.2,75.2,62.7,74.6,62.7z"/>
		<path id="XMLID_7_" fill="#336f94" d="M101.4,62.7H80.2c-0.6,0-1.1-0.5-1.1-1.1v-7.9c0-0.6,0.5-1.1,1.1-1.1h21.3
			c0.6,0,1.1,0.5,1.1,1.1v7.9C102.6,62.2,102.1,62.7,101.4,62.7z"/>
	</g>
	<g id="XMLID_13_">
		<path id="XMLID_16_" fill="#336f94" d="M99,72.3H32.3c-1.4,0-2.5,1.1-2.5,2.5v41.1c0,1.4,1.1,2.5,2.5,2.5H99
			c1.4,0,2.5-1.1,2.5-2.5V74.8C101.5,73.4,100.4,72.3,99,72.3z M90,111.3H40.2c-2.3,0-4.2-1.6-4.2-3.5c0-1.9,1.9-3.5,4.2-3.5H90
			c2.3,0,4.2,1.6,4.2,3.5C94.2,109.7,92.3,111.3,90,111.3z M90,98.9H40.2c-2.3,0-4.2-1.6-4.2-3.5c0-1.9,1.9-3.5,4.2-3.5H90
			c2.3,0,4.2,1.6,4.2,3.5C94.2,97.3,92.3,98.9,90,98.9z M91,86.5H41.3c-2.3,0-4.2-1.6-4.2-3.5s1.9-3.5,4.2-3.5H91
			c2.3,0,4.2,1.6,4.2,3.5S93.3,86.5,91,86.5z"/>
	</g>
</g>
</svg>
