<?xml version="1.0" encoding="utf-8"?>
<!-- Generator: Adobe Illustrator 19.2.1, SVG Export Plug-In . SVG Version: 6.00 Build 0)  -->
<svg version="1.1" id="Слой_1" xmlns="http://www.w3.org/2000/svg" xmlns:xlink="http://www.w3.org/1999/xlink" x="0px" y="0px"
	 viewBox="0 0 128 128" enable-background="new 0 0 128 128" xml:space="preserve">
<path id="XMLID_2_" fill="#C9E0D8" d="M25.2,32.5L57,14.4c4.6-2.6,10.2-2.6,14.7,0.1L103.2,33c4.5,2.7,7.3,7.5,7.3,12.8l-0.2,36.6
	c0,5.3-2.9,10.1-7.4,12.7L71,113.1c-4.6,2.6-10.2,2.6-14.7-0.1L24.8,94.5c-4.5-2.7-7.3-7.5-7.3-12.8l0.2-36.6
	C17.8,39.9,20.6,35.1,25.2,32.5z"/>
<path id="XMLID_1_" fill="none" stroke="#CAE0D9" stroke-miterlimit="10" d="M18.6,27.5L55.8,6.3c5.3-3,11.9-3,17.2,0.1L109.8,28
	c5.3,3.1,8.5,8.8,8.5,14.9l-0.3,42.7c0,6.1-3.4,11.8-8.7,14.8l-37.2,21.1c-5.3,3-11.9,3-17.2-0.1L18.2,100
	c-5.3-3.1-8.5-8.8-8.5-14.9l0.3-42.7C10,36.1,13.3,30.5,18.6,27.5z"/>
<g id="XMLID_119_">
	<path id="XMLID_121_" fill="#3F3F3F" d="M82.6,66.9c2.3-0.3,4.4-0.1,6.4,0.6c0.9,0.3,1.8-0.3,1.9-1.3c0.1-0.8,0.1-1.5,0.1-2.3
		c0-0.7,0-1.5-0.1-2.2c-0.1-0.9-1-1.6-1.9-1.3c-2.2,0.7-4.7,0.9-7.3,0.4c-6.1-1.2-10.8-6.2-11.7-12.3c-0.4-3.2,0.2-6.2,1.5-8.8
		c0.4-0.8,0-1.9-0.9-2.1C68.5,37.2,66.3,37,64,37c-2.3,0-4.6,0.3-6.7,0.9c-0.9,0.2-1.4,1.3-1,2.1c1.2,2.3,1.8,5.1,1.6,7.9
		c-0.6,6.7-5.8,12.3-12.5,13.2c-2.2,0.3-4.4,0.1-6.3-0.5c-0.9-0.3-1.8,0.3-1.9,1.3c-0.1,0.7-0.1,1.4-0.1,2.1c0,0.8,0,1.5,0.1,2.3
		c0.1,0.9,1,1.5,1.9,1.3c2-0.6,4.1-0.8,6.3-0.5c6.7,0.9,11.9,6.4,12.5,13.1c0.3,2.9-0.3,5.6-1.5,7.9c-0.4,0.8,0.1,1.8,1,2.1
		c2.1,0.5,4.4,0.8,6.7,0.8c2.3,0,4.4-0.3,6.5-0.8c0.9-0.2,1.4-1.2,1-2.1c-1.2-2.3-1.8-5-1.5-7.9C70.6,73.4,75.9,67.8,82.6,66.9z"/>
</g>
<path id="XMLID_116_" fill="none" stroke="#D18A88" stroke-miterlimit="10" d="M57.9,43.6c3.7-0.3,8.4-0.3,12.2,0"/>
<path id="XMLID_115_" fill="none" stroke="#87B9BD" stroke-miterlimit="10" d="M57.9,45.8c3.7-0.2,8.4-0.2,12.2,0"/>
<path id="XMLID_99_" fill="none" stroke="#D18A88" stroke-miterlimit="10" d="M83.7,67c0.2-1.9,0.2-4.2,0-6.1"/>
<path id="XMLID_89_" fill="none" stroke="#87B9BD" stroke-miterlimit="10" d="M82.6,67c0.1-1.9,0.1-4.2,0-6.1"/>
<path id="XMLID_79_" fill="none" stroke="#D18A88" stroke-miterlimit="10" d="M44.3,67c-0.2-1.9-0.2-4.2,0-6.1"/>
<path id="XMLID_76_" fill="none" stroke="#87B9BD" stroke-miterlimit="10" d="M45.4,67c-0.1-1.9-0.1-4.2,0-6.1"/>
<path id="XMLID_75_" fill="none" stroke="#D18A88" stroke-miterlimit="10" d="M70.1,84c-3.7,0.3-8.4,0.3-12.2,0"/>
<path id="XMLID_74_" fill="none" stroke="#87B9BD" stroke-miterlimit="10" d="M70.1,81.7c-3.7,0.2-8.4,0.2-12.2,0"/>
<line id="XMLID_73_" fill="none" stroke="#454545" stroke-width="0.5" stroke-miterlimit="10" x1="52.4" y1="58.1" x2="44.6" y2="46.6"/>
<line id="XMLID_72_" fill="none" stroke="#454545" stroke-miterlimit="10" x1="51.4" y1="58.8" x2="43.6" y2="47.2"/>
<circle id="XMLID_71_" fill="none" stroke="#696969" stroke-width="0.75" stroke-miterlimit="10" cx="43.8" cy="46.8" r="11.6"/>
<path id="XMLID_70_" fill="none" stroke="#696969" stroke-width="0.75" stroke-miterlimit="10" d="M46.8,37.7
	c-4.2-1.8-9,0.1-10.8,4.3"/>
<path id="XMLID_68_" fill="none" stroke="#696969" stroke-width="0.75" stroke-miterlimit="10" d="M39.3,41.8c0.1-0.2,1.2-2,3.1-2.1
	c0.6,0,1.1,0.1,1.4,0.3"/>
<circle id="XMLID_67_" fill="none" stroke="#696969" stroke-width="0.75" stroke-miterlimit="10" cx="43.8" cy="46.8" r="2.2"/>
<circle id="XMLID_66_" fill="#585757" cx="43.8" cy="46.8" r="1.3"/>
<g id="XMLID_63_">
	<path id="XMLID_65_" fill="#454545" d="M47.7,51.9c-0.1-0.2-0.1-0.4,0.1-0.5c0.2-0.1,0.4-0.1,0.5,0.1l0.3,0.4L48,52.3L47.7,51.9z"
		/>
	<path id="XMLID_64_" fill="#454545" d="M49.3,52.8c0.1,0.2,0.1,0.4-0.1,0.5c-0.2,0.1-0.4,0.1-0.5-0.1l-0.3-0.5l0.6-0.4L49.3,52.8z"
		/>
</g>
<line id="XMLID_62_" fill="none" stroke="#454545" stroke-width="0.5" stroke-miterlimit="10" x1="75.8" y1="69.6" x2="83.7" y2="81.2"/>
<line id="XMLID_54_" fill="none" stroke="#454545" stroke-miterlimit="10" x1="76.9" y1="69" x2="84.7" y2="80.6"/>
<circle id="XMLID_53_" fill="none" stroke="#696969" stroke-width="0.75" stroke-miterlimit="10" cx="84.5" cy="80.9" r="11.6"/>
<path id="XMLID_52_" fill="none" stroke="#696969" stroke-width="0.75" stroke-miterlimit="10" d="M81.5,90.1
	c4.2,1.8,9-0.1,10.8-4.3"/>
<path id="XMLID_48_" fill="none" stroke="#696969" stroke-width="0.75" stroke-miterlimit="10" d="M89,86c-0.1,0.2-1.2,2-3.1,2.1
	c-0.6,0-1.1-0.1-1.4-0.3"/>
<circle id="XMLID_47_" fill="none" stroke="#696969" stroke-width="0.75" stroke-miterlimit="10" cx="84.5" cy="80.9" r="2.2"/>
<circle id="XMLID_46_" fill="#585757" cx="84.5" cy="80.9" r="1.3"/>
<g id="XMLID_43_">
	<path id="XMLID_45_" fill="#454545" d="M80.5,75.9c0.1,0.2,0.1,0.4-0.1,0.5c-0.2,0.1-0.4,0.1-0.5-0.1l-0.3-0.4l0.6-0.4L80.5,75.9z"
		/>
	<path id="XMLID_44_" fill="#454545" d="M79,75c-0.1-0.2-0.1-0.4,0.1-0.5c0.2-0.1,0.4-0.1,0.5,0.1L80,75l-0.6,0.4L79,75z"/>
</g>
<line id="XMLID_42_" fill="none" stroke="#454545" stroke-width="0.5" stroke-miterlimit="10" x1="75.6" y1="58.1" x2="83.4" y2="46.6"/>
<line id="XMLID_41_" fill="none" stroke="#454545" stroke-miterlimit="10" x1="76.6" y1="58.8" x2="84.4" y2="47.2"/>
<circle id="XMLID_40_" fill="none" stroke="#575757" stroke-width="0.75" stroke-miterlimit="10" cx="84.2" cy="46.8" r="11.6"/>
<path id="XMLID_39_" fill="none" stroke="#585757" stroke-width="0.75" stroke-miterlimit="10" d="M81.2,37.7
	c4.2-1.8,9,0.1,10.8,4.3"/>
<path id="XMLID_38_" fill="none" stroke="#585757" stroke-width="0.75" stroke-miterlimit="10" d="M88.7,41.8
	c-0.1-0.2-1.2-2-3.1-2.1c-0.6,0-1.1,0.1-1.4,0.3"/>
<circle id="XMLID_37_" fill="none" stroke="#585757" stroke-width="0.75" stroke-miterlimit="10" cx="84.2" cy="46.8" r="2.2"/>
<circle id="XMLID_36_" fill="#585757" cx="84.2" cy="46.8" r="1.3"/>
<g id="XMLID_33_">
	<path id="XMLID_35_" fill="#454545" d="M80.3,51.9c0.1-0.2,0.1-0.4-0.1-0.5c-0.2-0.1-0.4-0.1-0.5,0.1l-0.3,0.4l0.6,0.4L80.3,51.9z"
		/>
	<path id="XMLID_34_" fill="#454545" d="M78.7,52.8c-0.1,0.2-0.1,0.4,0.1,0.5c0.2,0.1,0.4,0.1,0.5-0.1l0.3-0.5L79,52.3L78.7,52.8z"
		/>
</g>
<line id="XMLID_32_" fill="none" stroke="#454545" stroke-width="0.5" stroke-miterlimit="10" x1="52.2" y1="69.6" x2="44.3" y2="81.2"/>
<line id="XMLID_31_" fill="none" stroke="#454545" stroke-miterlimit="10" x1="51.1" y1="69" x2="43.3" y2="80.6"/>
<g id="XMLID_29_">
	<path id="XMLID_30_" fill="none" stroke="#696969" stroke-width="0.75" stroke-miterlimit="10" d="M82.5,66.8
		c2.3-0.3,4.4-0.1,6.4,0.6c0.9,0.3,1.8-0.3,1.9-1.3c0.1-0.8,0.1-1.5,0.1-2.3c0-0.7,0-1.5-0.1-2.2c-0.1-0.9-1-1.6-1.9-1.3
		c-2.2,0.7-4.7,0.9-7.3,0.4c-6.1-1.2-10.8-6.2-11.7-12.3c-0.4-3.2,0.2-6.2,1.5-8.8c0.4-0.8,0-1.9-0.9-2.1c-2.1-0.5-4.3-0.8-6.6-0.8
		c-2.3,0-4.6,0.3-6.7,0.9c-0.9,0.2-1.4,1.3-1,2.1c1.2,2.3,1.8,5.1,1.6,7.9C57.3,54.4,52,60,45.3,60.9C43.1,61.2,41,61,39,60.4
		c-0.9-0.3-1.8,0.3-1.9,1.3c-0.1,0.7-0.1,1.4-0.1,2.1c0,0.8,0,1.5,0.1,2.3c0.1,0.9,1,1.5,1.9,1.3c2-0.6,4.1-0.8,6.3-0.5
		c6.7,0.9,11.9,6.4,12.5,13.1c0.3,2.9-0.3,5.6-1.5,7.9c-0.4,0.8,0.1,1.8,1,2.1c2.1,0.5,4.4,0.8,6.7,0.8c2.3,0,4.4-0.3,6.5-0.8
		c0.9-0.2,1.4-1.2,1-2.1c-1.2-2.3-1.8-5-1.5-7.9C70.5,73.2,75.8,67.7,82.5,66.8z"/>
</g>
<circle id="XMLID_27_" fill="none" stroke="#696969" stroke-width="0.75" stroke-miterlimit="10" cx="43.5" cy="80.9" r="11.6"/>
<path id="XMLID_26_" fill="none" stroke="#696969" stroke-width="0.75" stroke-miterlimit="10" d="M46.5,90.1
	c-4.2,1.8-9-0.1-10.8-4.3"/>
<path id="XMLID_25_" fill="none" stroke="#696969" stroke-width="0.75" stroke-miterlimit="10" d="M39,86c0.1,0.2,1.2,2,3.1,2.1
	c0.6,0,1.1-0.1,1.4-0.3"/>
<circle id="XMLID_24_" fill="none" stroke="#696969" stroke-width="0.75" stroke-miterlimit="10" cx="43.5" cy="80.9" r="2.2"/>
<circle id="XMLID_23_" fill="#585757" cx="43.5" cy="80.9" r="1.3"/>
<circle id="XMLID_22_" fill="#CE7167" cx="60.8" cy="63.8" r="0.8"/>
<circle id="XMLID_21_" fill="#89BEA6" cx="67.2" cy="63.8" r="0.8"/>
<g id="XMLID_18_">
	<path id="XMLID_20_" fill="#454545" d="M47.5,75.9c-0.1,0.2-0.1,0.4,0.1,0.5c0.2,0.1,0.4,0.1,0.5-0.1l0.3-0.4l-0.6-0.4L47.5,75.9z"
		/>
	<path id="XMLID_19_" fill="#454545" d="M49,75c0.1-0.2,0.1-0.4-0.1-0.5c-0.2-0.1-0.4-0.1-0.5,0.1L48,75l0.6,0.4L49,75z"/>
</g>
<circle id="XMLID_17_" fill="#CEDFB6" cx="63.1" cy="63.8" r="0.2"/>
<ellipse id="XMLID_16_" transform="matrix(1 -3.748023e-003 3.748023e-003 1 -0.2385 0.2438)" fill="#CEDFB6" cx="64.9" cy="63.8" rx="0.2" ry="0.2"/>
<circle id="XMLID_3_" fill="#CEDFB5" cx="64" cy="63.8" r="0.2"/>
<g id="XMLID_4_" opacity="0.1">
	<g>
		<path id="XMLID_15_" fill="#FFFFFF" d="M75.7,66.1c1.4-0.2,2.8-0.1,4,0.4c0.6,0.2,1.2-0.3,1.2-1c0-0.6,0.1-1.2,0.1-1.8
			c0-0.6,0-1.1-0.1-1.7c0-0.7-0.6-1.2-1.2-1c-1.4,0.6-3,0.7-4.6,0.3c-3.8-0.9-6.8-4.8-7.3-9.6c-0.3-2.5,0.1-4.8,1-6.8
			c0.3-0.6,0-1.4-0.6-1.6c-1.3-0.4-2.7-0.6-4.2-0.6c-1.5,0-2.9,0.2-4.3,0.7c-0.6,0.2-0.9,1-0.6,1.6c0.8,1.8,1.1,3.9,1,6.2
			c-0.4,5.3-3.7,9.6-7.9,10.3c-1.4,0.2-2.8,0.1-4-0.4c-0.6-0.2-1.1,0.3-1.2,1c0,0.5-0.1,1.1-0.1,1.6c0,0.6,0,1.2,0.1,1.8
			c0,0.7,0.6,1.2,1.2,1c1.2-0.5,2.6-0.6,4-0.4c4.2,0.7,7.5,5,7.9,10.2c0.2,2.2-0.2,4.3-0.9,6.2c-0.3,0.6,0,1.4,0.6,1.6
			c1.3,0.4,2.8,0.7,4.2,0.7c1.4,0,2.8-0.2,4.1-0.6c0.6-0.2,0.9-1,0.6-1.6c-0.8-1.8-1.1-3.9-1-6.2C68.1,71.1,71.5,66.8,75.7,66.1z"/>
	</g>
</g>
</svg>
