<?xml version="1.0" encoding="utf-8"?>
<!-- Generator: Adobe Illustrator 19.0.0, SVG Export Plug-In . SVG Version: 6.00 Build 0)  -->
<svg version="1.1" id="Слой_1" xmlns="http://www.w3.org/2000/svg" xmlns:xlink="http://www.w3.org/1999/xlink" x="0px" y="0px"
	 viewBox="0 0 128 128" enable-background="new 0 0 128 128" xml:space="preserve">
<g id="XMLID_5_">
	<path id="XMLID_60_" fill="none" d="M4,64v1.3h0C4,64.8,4,64.4,4,64z"/>
	<path id="XMLID_61_" fill="none" d="M124,65.3V64C124,64.4,124,64.8,124,65.3L124,65.3z"/>
	<path id="XMLID_73_" fill="#006EE7" d="M5,53h59V40.8V28.5V16.3V4C34.6,4,10.2,25.1,5,53z"/>
	<path id="XMLID_74_" fill="#E6322B" d="M100.3,16.3C90.2,8.6,77.7,4,64,4v12.3H100.3z"/>
	<path id="XMLID_75_" fill="#FFFFFF" d="M64,28.5h48.4c-3.4-4.6-7.5-8.8-12-12.3H64V28.5z"/>
	<path id="XMLID_76_" fill="#E6322B" d="M64,40.8h55.3c-1.8-4.4-4.2-8.5-7-12.3H64V40.8z"/>
	<path id="XMLID_77_" fill="#FFFFFF" d="M64,53h59c-0.8-4.3-2-8.4-3.6-12.3H64V53z"/>
	<path id="XMLID_78_" fill="#E6322B" d="M64,53H5c-0.7,3.6-1,7.2-1,11c0,0.4,0,0.8,0,1.3H124c0-0.4,0-0.8,0-1.3c0-3.8-0.4-7.4-1-11
		H64z"/>
	<path id="XMLID_79_" fill="#FFFFFF" d="M122.5,77.5c0.9-3.9,1.4-8,1.5-12.3H4c0.1,4.2,0.6,8.3,1.5,12.3H122.5z"/>
	<path id="XMLID_80_" fill="#E6322B" d="M9.8,89.8h108.4c1.8-3.9,3.3-8,4.3-12.3H5.5C6.5,81.8,8,85.9,9.8,89.8z"/>
	<path id="XMLID_81_" fill="#FFFFFF" d="M17.6,102h92.9c3.1-3.7,5.7-7.8,7.8-12.3H9.8C11.9,94.2,14.5,98.3,17.6,102z"/>
	<path id="XMLID_82_" fill="#FFFFFF" d="M31.2,114.3c9.4,6.2,20.7,9.8,32.8,9.8s23.3-3.6,32.8-9.8H31.2z"/>
	<path id="XMLID_83_" fill="#E6322B" d="M31.2,114.3h65.5c5.2-3.4,9.8-7.5,13.7-12.3H17.6C21.5,106.7,26.1,110.9,31.2,114.3z"/>
</g>
<g id="XMLID_13_">
	<polygon id="XMLID_12_" fill="#FFFFFF" points="35.8,13.3 37.1,16 40.1,16.4 38,18.6 38.5,21.5 35.8,20.1 33.1,21.5 33.6,18.6 
		31.4,16.4 34.4,16 	"/>
	<polygon id="XMLID_14_" fill="#FFFFFF" points="51.6,13.3 53,16 56,16.4 53.8,18.6 54.3,21.5 51.6,20.1 48.9,21.5 49.4,18.6 
		47.3,16.4 50.3,16 	"/>
</g>
<g id="XMLID_33_">
	<polygon id="XMLID_24_" fill="#FFFFFF" points="23.7,25.9 25.1,28.7 28.1,29.1 25.9,31.2 26.4,34.2 23.7,32.8 21,34.2 21.5,31.2 
		19.4,29.1 22.4,28.7 	"/>
	<polygon id="XMLID_27_" fill="#FFFFFF" points="38.6,25.9 39.9,28.7 42.9,29.1 40.7,31.2 41.3,34.2 38.6,32.8 35.9,34.2 36.4,31.2 
		34.2,29.1 37.2,28.7 	"/>
	<polygon id="XMLID_28_" fill="#FFFFFF" points="54.4,25.9 55.7,28.7 58.8,29.1 56.6,31.2 57.1,34.2 54.4,32.8 51.7,34.2 52.2,31.2 
		50,29.1 53,28.7 	"/>
</g>
<g id="XMLID_34_">
	<polygon id="XMLID_29_" fill="#FFFFFF" points="15.3,38.6 16.6,41.3 19.6,41.8 17.5,43.9 18,46.9 15.3,45.5 12.6,46.9 13.1,43.9 
		10.9,41.8 13.9,41.3 	"/>
	<polygon id="XMLID_30_" fill="#FFFFFF" points="29.5,38.6 30.8,41.3 33.8,41.8 31.7,43.9 32.2,46.9 29.5,45.5 26.8,46.9 27.3,43.9 
		25.1,41.8 28.1,41.3 	"/>
	<polygon id="XMLID_31_" fill="#FFFFFF" points="43.7,38.6 45,41.3 48,41.8 45.9,43.9 46.4,46.9 43.7,45.5 41,46.9 41.5,43.9 
		39.3,41.8 42.3,41.3 	"/>
	<polygon id="XMLID_32_" fill="#FFFFFF" points="57.9,38.6 59.2,41.3 62.3,41.8 60.1,43.9 60.6,46.9 57.9,45.5 55.2,46.9 55.7,43.9 
		53.5,41.8 56.5,41.3 	"/>
</g>
</svg>
